<?xml version="1.0" encoding="UTF-8" standalone="no"?>
<!-- Created with Inkscape (http://www.inkscape.org/) -->

<svg
   width="270.93335mm"
   height="233.26927mm"
   viewBox="0 0 270.93335 233.26927"
   version="1.1"
   id="svg5"
   xml:space="preserve"
   xmlns:inkscape="http://www.inkscape.org/namespaces/inkscape"
   xmlns:sodipodi="http://sodipodi.sourceforge.net/DTD/sodipodi-0.dtd"
   xmlns="http://www.w3.org/2000/svg"
   xmlns:svg="http://www.w3.org/2000/svg"><sodipodi:namedview
     id="namedview7"
     pagecolor="#ffffff"
     bordercolor="#000000"
     borderopacity="0.25"
     inkscape:showpageshadow="2"
     inkscape:pageopacity="0.0"
     inkscape:pagecheckerboard="0"
     inkscape:deskcolor="#d1d1d1"
     inkscape:document-units="mm"
     showgrid="false" /><defs
     id="defs2" /><g
     inkscape:label="Layer 1"
     inkscape:groupmode="layer"
     id="layer1"
     transform="translate(-36.535294,-122.79136)"><g
       id="g2899"
       transform="translate(40.21148,-21.775114)"
       style="fill:#1e4b82;fill-opacity:1"><path
         style="fill:#1e4b82;fill-opacity:1;stroke-width:0.79906"
         d="m 111.89691,376.88359 -2.06729,-0.39952 5.96755,-10.38779 c 3.28216,-5.71328 6.27816,-10.70756 6.65779,-11.09838 0.37965,-0.39084 8.80258,-0.64768 18.71767,-0.57084 9.91509,0.077 18.0274,-0.0809 18.0274,-0.35067 0,-1.039 -31.23476,-53.36181 -32.26567,-54.04976 -0.4505,-0.30048 -1.09659,-0.37503 -1.43577,-0.16547 -0.33919,0.20959 -6.88248,11.42268 -14.54065,24.91795 -7.65818,13.49524 -14.851418,26.15491 -15.984976,28.13258 -1.133556,1.97769 -4.65733,8.18039 -7.830596,13.7838 l -5.769586,10.18804 H 38.715543 c -23.461485,0 -42.5373859,-0.30655 -42.3908912,-0.68121 0.1465037,-0.3747 29.9298062,-52.86189 66.1851382,-116.63827 50.23764,-88.37245 66.1349,-115.72529 66.82725,-114.98293 0.49965,0.53576 1.8202,2.64184 2.93452,4.68021 2.19131,4.00837 44.06888,74.84134 49.30883,83.40243 1.7543,2.86617 3.18962,5.36375 3.18962,5.5502 0,0.18637 3.18449,5.66366 7.07661,12.17163 3.89215,6.50793 15.78995,26.5753 26.43955,44.59414 10.6496,18.01881 23.4257,39.59349 28.39134,47.94368 4.96564,8.35021 11.09893,18.77797 13.62956,23.17281 2.53062,4.39484 5.12967,8.79964 5.77563,9.78848 l 1.17445,1.79792 -15.07429,-0.0356 -15.0743,-0.0356 -12.33967,-20.93988 c -6.78683,-11.51697 -17.80205,-30.10912 -24.47823,-41.31599 -6.67621,-11.20684 -12.94304,-21.81292 -13.92632,-23.56906 -2.46737,-4.40678 -25.90086,-44.06444 -39.19127,-66.32536 -6.03484,-10.10813 -11.7661,-19.81673 -12.73618,-21.57465 -3.67093,-6.65248 -4.97267,-8.39017 -6.28532,-8.39017 -0.9589,0 -14.26144,22.69809 -45.681107,77.94557 -24.380543,42.87007 -44.445875,78.47537 -44.589642,79.12286 -0.225147,1.01403 2.149122,1.1474 17.119605,0.96179 l 17.381003,-0.21564 26.596035,-46.74509 c 14.627816,-25.70981 27.289796,-47.9669 28.137746,-49.46016 l 1.54174,-2.71503 11.79306,19.89486 c 6.48619,10.94216 15.98457,26.90665 21.10749,35.47657 5.12296,8.56993 9.56799,16.12107 9.87785,16.78028 0.30989,0.65923 1.2797,2.38068 2.15513,3.82544 0.87546,1.44474 6.8437,11.51292 13.26281,22.37373 6.41908,10.86079 12.40257,20.95003 13.29664,22.42054 l 1.62555,2.6737 -43.90564,-0.27664 c -24.1481,-0.15217 -44.83592,-0.45625 -45.97293,-0.676 z"
         id="path2915" /><path
         style="fill:#1e4b82;fill-opacity:1;stroke-width:0.264583"
         d="m 97.38511,166.68907 c 0.257432,-0.0671 0.614619,-0.0627 0.79375,0.01 0.179131,0.0725 -0.03149,0.12736 -0.468056,0.12197 -0.436562,-0.005 -0.583125,-0.0647 -0.325694,-0.13178 z m 1.46671,0.003 c 0.190995,-0.0764 0.419198,-0.067 0.507119,0.0209 0.08792,0.0879 -0.06835,0.15046 -0.347266,0.13897 -0.308226,-0.0127 -0.370919,-0.0754 -0.159853,-0.15985 z m 3.56037,-7.67553 c 0.25744,-0.0671 0.61462,-0.0627 0.79375,0.01 0.17913,0.0725 -0.0315,0.12737 -0.46805,0.12197 -0.43656,-0.005 -0.58313,-0.0647 -0.3257,-0.13177 z m 1.85069,-0.007 c 0.40218,-0.0608 0.9975,-0.0592 1.32292,0.004 0.32542,0.0628 -0.004,0.11256 -0.73125,0.11057 -0.7276,-0.002 -0.99385,-0.0534 -0.59167,-0.11419 z m 2.51299,0.003 c 0.32912,-0.0633 0.80537,-0.0609 1.05833,0.005 0.25297,0.0662 -0.0163,0.118 -0.5984,0.11506 -0.58208,-0.003 -0.78905,-0.0571 -0.45993,-0.1204 z"
         id="path2913" /><path
         style="fill:#1e4b82;fill-opacity:1;stroke-width:0.264583"
         d="m 83.48945,166.6972 c 0.181901,-0.0734 0.479557,-0.0734 0.661458,0 0.181901,0.0734 0.03307,0.13345 -0.330729,0.13345 -0.363802,0 -0.51263,-0.06 -0.330729,-0.13345 z"
         id="path2911" /><path
         style="fill:#1e4b82;fill-opacity:1;stroke-width:0.264583"
         d="m 143.41758,166.9475 c 0.40018,-0.0606 1.05502,-0.0606 1.4552,0 0.40019,0.0606 0.0728,0.11022 -0.7276,0.11022 -0.80036,0 -1.12779,-0.0496 -0.7276,-0.11022 z m -67.068795,-0.2622 c 0.329118,-0.0633 0.805368,-0.0609 1.058333,0.005 0.252966,0.0662 -0.01632,0.118 -0.598397,0.11507 -0.582084,-0.003 -0.789054,-0.0571 -0.459936,-0.12041 z"
         id="path2909" /><path
         style="fill:#1e4b82;fill-opacity:1;stroke-width:0.264583"
         d="m 68.672783,166.67869 c 0.618463,-0.0557 1.630495,-0.0557 2.248958,0 0.618464,0.0557 0.112448,0.10129 -1.124479,0.10129 -1.236927,0 -1.742943,-0.0456 -1.124479,-0.10129 z"
         id="path2907" /><path
         style="fill:#1e4b82;fill-opacity:1;stroke-width:0.264583"
         d="m 124.8306,166.98694 c 0.88879,-0.19862 2.85156,-0.2333 2.73725,-0.0484 -0.0675,0.10914 -0.80023,0.18463 -1.62839,0.16775 -0.82816,-0.0169 -1.32714,-0.0706 -1.10886,-0.11938 z m -64.624484,-0.30591 c 0.472943,-0.0587 1.246849,-0.0587 1.719792,0 0.472942,0.0587 0.08599,0.10671 -0.859896,0.10671 -0.945886,0 -1.332839,-0.048 -0.859896,-0.10671 z m 2.926953,0.0107 c 0.190996,-0.0764 0.419199,-0.067 0.507118,0.0209 0.08792,0.0879 -0.06835,0.15046 -0.347265,0.13897 -0.308225,-0.0127 -0.37092,-0.0754 -0.159853,-0.15985 z"
         id="path2905" /><path
         style="fill:#1e4b82;fill-opacity:1;stroke-width:0.264583"
         d="m 110.08371,166.94715 c 0.40219,-0.0608 0.9975,-0.0592 1.32292,0.004 0.32542,0.0628 -0.004,0.11256 -0.73124,0.11057 -0.72761,-0.002 -0.99386,-0.0534 -0.59168,-0.11418 z m 3.1764,0.007 c 0.25743,-0.0671 0.61462,-0.0627 0.79375,0.01 0.17913,0.0725 -0.0315,0.12737 -0.46806,0.12197 -0.43656,-0.005 -0.58312,-0.0647 -0.32569,-0.13177 z m 1.84705,-0.006 c 0.40018,-0.0606 1.05503,-0.0606 1.45521,0 0.40018,0.0606 0.0728,0.11023 -0.72761,0.11023 -0.80036,0 -1.12778,-0.0496 -0.7276,-0.11023 z m -33.475694,-8.20352 c 0.469697,-0.0584 1.303134,-0.0594 1.852084,-0.002 0.548947,0.0573 0.16465,0.1051 -0.853996,0.10627 -1.018646,0.001 -1.467787,-0.0457 -0.998088,-0.10413 z"
         id="path2903" /></g></g></svg>
